<svg xmlns:xlink="http://www.w3.org/1999/xlink" viewBox="0 0 111 40" xmlns="http://www.w3.org/2000/svg" height="40" width="111" ><path d="https://www.google.com/imgres?imgurl=https%3A%2F%2Fhearmeout.imgix.net%2Fimages%2Fweve-changed-our-name-to-hear-me-out%2Flgo.jpg%3Fcrop%3Dfocalpoint%26domain%3Dhearmeout.imgix.net%26fit%3Dcrop%26fm%3Dpjpg%26fp-x%3D0.5%26fp-y%3D0.5%26h%3D682%26ixlib%3Dphp-3.3.0%26q%3D82%26w%3D1024%26s%3D3cec6edfa5ec162b155f4b88cbb28876&imgrefurl=https%3A%2F%2Fhearmeoutmusic.org.uk%2Fstories%2Fweve-changed-our-name-to-hear-me-out&tbnid=QephhCG4HDcc4M&vet=12ahUKEwimpMKmhu_6AhWai9gFHSyyAckQMygGegUIARDKAQ..i&docid=h_e6hzQnpvSuoM&w=1024&h=682&q=hear%20me%20out&ved=2ahUKEwimpMKmhu_6AhWai9gFHSyyAckQMygGegUIARDKAQ" fill="#F64060" fill-rule="evenodd"></path></svg>